<svg xmlns="http://www.w3.org/2000/svg" version="1.1" xmlns:xlink="http://www.w3.org/1999/xlink" xmlns:svgjs="http://svgjs.dev/svgjs" width="1000" height="265" viewBox="0 0 1000 265"><g transform="matrix(1,0,0,1,-0.6060606060606233,0.0807357627589056)"><svg viewBox="0 0 396 105" data-background-color="#ffffff" preserveAspectRatio="xMidYMid meet" height="265" width="1000" xmlns="http://www.w3.org/2000/svg" xmlns:xlink="http://www.w3.org/1999/xlink"><g id="tight-bounds" transform="matrix(1,0,0,1,0.2400000000000091,-0.03198964184787201)"><svg viewBox="0 0 395.52 105.06397928369576" height="105.06397928369576" width="395.52"><g><svg viewBox="0 0 572.3605555461113 152.03903102422439" height="105.06397928369576" width="395.52"><g transform="matrix(1,0,0,1,176.84055554611135,55.00804079898002)"><svg viewBox="0 0 395.52 42.02294942626434" height="42.02294942626434" width="395.52"><g id="textblocktransform"><svg viewBox="0 0 395.52 42.02294942626434" height="42.02294942626434" width="395.52" id="textblock"><g><svg viewBox="0 0 395.52 42.02294942626434" height="42.02294942626434" width="395.52"><g transform="matrix(1,0,0,1,0,0)"><svg width="395.52" viewBox="3.25 -37.5 352.9200134277344 37.5" height="42.02294942626434" data-palette-color="#7c4e29"><path d="M6.4-34.1L3.25-34.1 3.25-37.5 10.95-37.5 21.55-15.65 32.05-37.5 39.75-37.5 39.75-34.1 36.6-34.1 36.6-3.4 39.75-3.4 39.75 0 29.25 0 29.25-3.4 32.5-3.4 32.5-29.15 23.05-9.7 19.9-9.7 10.5-29.3 10.5-3.4 13.75-3.4 13.75 0 3.25 0 3.25-3.4 6.4-3.4 6.4-34.1ZM54.55-16.5L63.45-16.5 59-34.1 54.55-16.5ZM70.55-3.4L73.8-3.4 73.8 0 64.05 0 64.05-3.4 66.75-3.4 64.25-13.35 53.75-13.35 51.25-3.4 54-3.4 54 0 44.25 0 44.25-3.4 47.4-3.4 56.1-37.5 62-37.5 70.55-3.4ZM93.65-33.05L93.65-23.8Q94.7-24.6 96.22-24.6 97.75-24.6 98.82-23.55 99.9-22.5 99.9-20.3L99.9-20.3 99.9-4.4Q99.9-2.3 99.25-1.5L99.25-1.5Q97.95 0 95.45 0L95.45 0 78.05 0 78.05-3.4 81.2-3.4 81.2-34.15 78.1-34.15 78.1-37.5 88.55-37.5Q93.65-37.5 93.65-33.05L93.65-33.05ZM85.3-18.55L89.6-21.25 89.6-34.15 85.3-34.15 85.3-18.55ZM95.9-3.45L95.9-21.2 85.3-14.55 85.3-3.45 95.9-3.45ZM114.44-16.5L123.34-16.5 118.89-34.1 114.44-16.5ZM130.44-3.4L133.69-3.4 133.69 0 123.94 0 123.94-3.4 126.64-3.4 124.14-13.35 113.64-13.35 111.14-3.4 113.89-3.4 113.89 0 104.14 0 104.14-3.4 107.29-3.4 115.99-37.5 121.89-37.5 130.44-3.4ZM167.64-37.5L167.64-34.1 164.49-34.1 164.49 0 159.59 0 145.44-29.2 145.44-3.4 148.69-3.4 148.69 0 138.19 0 138.19-3.4 141.34-3.4 141.34-34.1 138.19-34.1 138.19-37.5 145.89-37.5 160.39-7.7 160.39-34.1 157.14-34.1 157.14-37.5 167.64-37.5ZM177.89-26.1L190.29-18.35Q191.29-17.65 192.16-17.13 193.04-16.6 193.69-16L193.69-16Q194.99-14.8 194.99-13.05L194.99-13.05 194.99-4.55Q194.99-2.3 193.39-1.1L193.39-1.1Q192.04 0 189.84 0L189.84 0 173.89 0 173.89-9.25 177.49-9.25 177.49-3.4 190.99-3.4 190.99-13.15 177.89-21.2Q176.14-22.2 175.01-23.28 173.89-24.35 173.89-26.2L173.89-26.2 173.89-32.5Q173.89-35.45 175.29-36.55L175.29-36.55Q176.49-37.5 179.44-37.5L179.44-37.5 194.54-37.5 194.54-28.25 190.94-28.25 190.94-34.1 177.89-34.1 177.89-26.1ZM247.13-34.1L243.98-34.1 243.98-3.4 247.13-3.4 247.13 0 236.83 0 236.83-3.4 239.88-3.4 239.88-17.7 225.98-17.7 225.98-3.4 229.03-3.4 229.03 0 218.73 0 218.73-3.4 221.88-3.4 221.88-34.1 218.73-34.1 218.73-37.5 229.03-37.5 229.03-34.1 225.98-34.1 225.98-21.05 239.88-21.05 239.88-34.1 236.83-34.1 236.83-37.5 247.13-37.5 247.13-34.1ZM258.93-37.5L268.68-37.5Q271.73-37.5 273.11-35.83 274.48-34.15 274.48-30.85L274.48-30.85 274.48-6.8Q274.48-3.2 273.28-1.6 272.08 0 268.93 0L268.93 0 259.33 0Q254.53 0 253.68-3.6L253.68-3.6Q253.38-4.7 253.38-6.05L253.38-6.05 253.38-30.85Q253.38-34.2 254.48-35.7L254.48-35.7Q255.73-37.5 258.93-37.5L258.93-37.5ZM257.38-34.1L257.38-3.4 270.48-3.4 270.48-34.1 257.38-34.1ZM284.13 0L284.13-3.4 287.28-3.4 287.28-34.1 280.98-34.1 280.98-28.2 277.38-28.2 277.38-37.5 301.33-37.5 301.33-28.2 297.68-28.2 297.68-34.1 291.38-34.1 291.38-3.4 294.63-3.4 294.63 0 284.13 0ZM320.13-24.65L323.53-24.65 323.53-14.15 320.13-14.15 320.13-17.7 313.08-17.7 313.08-3.4 325.88-3.4 325.88-9.25 329.28-9.25 329.28 0 305.83 0 305.83-3.4 308.98-3.4 308.98-34.1 305.83-34.1 305.83-37.5 329.28-37.5 329.28-28.25 325.88-28.25 325.88-34.1 313.08-34.1 313.08-21.1 320.13-21.1 320.13-24.65ZM335.02 0L335.02-3.4 338.17-3.4 338.17-34.1 335.02-34.1 335.02-37.5 345.52-37.5 345.52-34.1 342.27-34.1 342.27-3.4 352.77-3.4 352.77-9.25 356.17-9.25 356.17 0 335.02 0Z" opacity="1" transform="matrix(1,0,0,1,0,0)" fill="#7c4e29" class="wordmark-text-0" data-fill-palette-color="primary" id="text-0"></path></svg></g></svg></g></svg></g></svg></g><g><svg viewBox="0 0 152.03903102422439 152.03903102422439" height="152.03903102422439" width="152.03903102422439"><g><svg viewBox="0 0 152.03903102422439 152.03903102422439" height="152.03903102422439" width="152.03903102422439"><g transform="matrix(1,0,0,1,40.183572231358546,40.40754687686326)"><svg viewBox="0 0 71.67188656150729 71.22393727049787" height="71.22393727049787" width="71.67188656150729"><g><svg xmlns="http://www.w3.org/2000/svg" xmlns:xlink="http://www.w3.org/1999/xlink" version="1.1" x="0" y="0" viewBox="0 0 100 99.375" enable-background="new 0 0 100 99.375" xml:space="preserve" width="71.67188656150729" height="71.22393727049787" class="icon-s-0" data-fill-palette-color="accent" id="s-0"><path d="M10.924 84.883v14.492H3.333V46.328c0-2.096 1.699-3.815 3.795-3.815l0 0c2.123 0 3.795 1.719 3.795 3.815v31.367H96.55v21.68h-7.656V84.883H10.924z" fill="#7c4e29" data-fill-palette-color="accent"></path><path d="M22.624 61.614c3.796 0 6.869-3.072 6.869-6.888 0-3.789-3.073-6.862-6.869-6.862-3.815 0-6.888 3.073-6.888 6.862C15.736 58.542 18.809 61.614 22.624 61.614z" fill="#7c4e29" data-fill-palette-color="accent"></path><path d="M96.667 71.992l-0.026-9.466c-0.026-3.008-2.552-5.078-5.481-5.443l-54.05-5.377c-0.117-0.026-0.208-0.078-0.306-0.078-1.862 0-3.379 1.523-3.379 3.372v10.208H19.284c-1.888 0-3.398 1.537-3.398 3.398 0 1.875 1.511 3.386 3.398 3.386H96.667z" fill="#7c4e29" data-fill-palette-color="accent"></path><polygon points="100,24.883 50.065,0.065 50.045,0 50,0.026 49.955,0 49.935,0.065 0,24.883 4.16,33.255 50,10.469 95.84,33.255 " fill="#7c4e29" data-fill-palette-color="accent"></polygon></svg></g></svg></g><g><path d="M2.91 55.668l-0.346 0.967-1.032-0.369 0.839-2.346 7.799-0.853-5.5-5.576 0.835-2.336 1.033 0.369-0.343 0.957 9.347 3.342 0.343-0.957 1.032 0.369-1.141 3.191-1.032-0.369 0.352-0.986-7.836-2.802 4.885 4.986-0.345 0.967-6.98 0.722 7.883 2.819 0.353-0.986 1.032 0.369-1.144 3.2-1.033-0.369 0.346-0.966z" fill="#7c4e29" data-fill-palette-color="accent"></path><path d="M17.665 37.862l1.653-2.347-5.48-2.103zM24.106 36.071l0.603-0.856 0.896 0.631-1.813 2.576-0.896-0.632 0.499-0.709-3.097-1.193-1.951 2.771 2.168 2.513 0.51-0.725 0.897 0.631-1.813 2.575-0.897-0.631 0.585-0.831-7.395-8.644 1.096-1.556z" fill="#7c4e29" data-fill-palette-color="accent"></path><path d="M26.615 19.786l2.015 2.209c0.051-0.28 0.198-0.532 0.444-0.755 0.241-0.219 0.523-0.324 0.847-0.314 0.324 0.01 0.647 0.192 0.97 0.545v0l3.458 3.793c0.304 0.334 0.463 0.612 0.477 0.833v0c0.013 0.429-0.179 0.824-0.577 1.187v0l-4.16 3.794-0.739-0.81 0.751-0.685-6.702-7.349-0.737 0.672-0.725-0.795 2.496-2.277c0.81-0.739 1.537-0.755 2.182-0.048zM27.776 25.067l0.447-1.581-2.814-3.085-1.031 0.94zM33.6 26.365l-3.868-4.241-1.083 3.901 2.418 2.651z" fill="#7c4e29" data-fill-palette-color="accent"></path><path d="M40.97 16.327l2.511-1.39-4.012-4.284zM47.547 17.527l0.915-0.506 0.531 0.959-2.755 1.525-0.531-0.959 0.758-0.42-2.265-2.426-2.965 1.642 0.853 3.207 0.776-0.43 0.531 0.96-2.755 1.525-0.531-0.959 0.889-0.493-2.879-11.005 1.665-0.922z" fill="#7c4e29" data-fill-palette-color="accent"></path><path d="M61.072 1.441l0.292 1.057-0.989 0.273 2.94 10.624-1.518 0.42-6.926-7.876 2.225 8.039 1.009-0.279 0.292 1.057-3.276 0.906-0.292-1.056 0.989-0.274-2.647-9.567-0.989 0.274-0.293-1.057 2.402-0.664 7.082 8.029-2.275-8.222-1.009 0.279-0.292-1.057z" fill="#7c4e29" data-fill-palette-color="accent"></path><path d="M72.384 3.867l4.093 2.367c0.225 0.145 0.432 0.27 0.622 0.377 0.19 0.106 0.36 0.22 0.511 0.341v0c0.288 0.249 0.439 0.563 0.452 0.941v0l0.098 2.739c0.017 0.485-0.142 0.863-0.478 1.134v0c-0.284 0.249-0.661 0.383-1.133 0.399v0l-5.159 0.184-0.107-2.988 1.166-0.041 0.067 1.892 4.363-0.155-0.113-3.158-4.326-2.448c-0.386-0.199-0.703-0.41-0.95-0.635-0.254-0.224-0.388-0.535-0.402-0.933v0l-0.073-2.032c-0.023-0.637 0.114-1.078 0.412-1.321v0c0.252-0.215 0.693-0.334 1.324-0.356v0l4.88-0.174 0.107 2.988-1.166 0.042-0.067-1.893-4.213 0.15z" fill="#7c4e29" data-fill-palette-color="accent"></path><path d="M108.562 8.227l-0.96-0.364-3.517 9.283 0.96 0.363-0.389 1.025-3.122-1.183 0.389-1.025 0.922 0.35 1.639-4.325-4.194-1.589-1.639 4.325 0.914 0.346-0.389 1.025-3.113-1.179 0.389-1.025 0.96 0.363 3.517-9.282-0.96-0.364 0.388-1.025 3.113 1.179-0.388 1.025-0.914-0.346-1.493 3.943 4.194 1.589 1.493-3.943-0.922-0.349 0.388-1.026 3.122 1.183z" fill="#7c4e29" data-fill-palette-color="accent"></path><path d="M119.117 13.043l2.618 1.768c0.54 0.364 0.833 0.779 0.88 1.244 0.047 0.465-0.128 0.992-0.526 1.58v0l-4.349 6.444c-0.435 0.644-0.856 1.037-1.265 1.178-0.408 0.141-0.893 0.022-1.454-0.357v0l-2.578-1.739c-0.854-0.576-1.14-1.239-0.859-1.987v0c0.075-0.23 0.194-0.466 0.358-0.709v0l4.489-6.649c0.402-0.595 0.792-0.96 1.173-1.096v0c0.441-0.167 0.946-0.059 1.513 0.323zM118.09 13.673l-5.554 8.228 3.511 2.37 5.554-8.228z" fill="#7c4e29" data-fill-palette-color="accent"></path><path d="M122.626 31.523l0.791-0.758 0.711 0.741 7.168-6.866-1.413-1.476-1.375 1.317-0.799-0.835 2.166-2.075 5.35 5.586-2.167 2.075-0.813-0.85 1.375-1.316-1.407-1.469-7.169 6.866 0.724 0.756-0.791 0.759z" fill="#7c4e29" data-fill-palette-color="accent"></path><path d="M139.647 40.629l0.584 0.94-2.888 1.792-0.584-0.94 0.974-0.604-1.198-1.931-3.929 2.438 2.18 3.514 1.609-0.998 0.578 0.931-2.54 1.577-3.999-6.445 0.932-0.578 0.541 0.872 8.435-5.233-0.541-0.872 0.931-0.578 3.999 6.445-2.541 1.576-0.578-0.932 1.609-0.998-2.18-3.515-3.574 2.218 1.198 1.931z" fill="#7c4e29" data-fill-palette-color="accent"></path><path d="M137.25 53.799l1.034-0.364 0.34 0.969 9.364-3.296-0.341-0.968 1.034-0.364 1.129 3.206-1.035 0.364-0.347-0.987-9.363 3.295 1.125 3.197 1.786-0.629 0.364 1.034-2.821 0.993z" fill="#7c4e29" data-fill-palette-color="accent"></path><path d="M16.06 95.757l-0.346-0.967 1.032-0.369 0.839 2.346-5.499 5.608 7.795 0.811 0.839 2.346-1.033 0.369-0.342-0.957-9.347 3.342 0.342 0.958-1.032 0.369-1.144-3.2 1.032-0.369 0.356 0.994 7.836-2.802-6.943-0.767-0.342-0.957 4.936-4.993-7.883 2.819 0.356 0.995-1.033 0.369-1.144-3.2 1.032-0.37 0.346 0.967z" fill="#7c4e29" data-fill-palette-color="accent"></path><path d="M19.777 116.777l1.653 2.347 3.827-4.449zM19.286 123.437l0.608 0.864-0.897 0.631-1.813-2.575 0.897-0.631 0.499 0.709 2.168-2.514-1.951-2.77-3.097 1.193 0.51 0.725-0.896 0.631-1.813-2.575 0.896-0.631 0.586 0.831 10.631-4.047 1.096 1.556z" fill="#7c4e29" data-fill-palette-color="accent"></path><path d="M35.569 126.523l-2.015 2.209c0.283 0.025 0.548 0.149 0.793 0.373 0.241 0.219 0.371 0.491 0.39 0.814 0.02 0.324-0.132 0.662-0.454 1.016v0l-3.459 3.792c-0.304 0.334-0.566 0.518-0.786 0.551v0c-0.426 0.052-0.837-0.103-1.234-0.465v0l-4.161-3.794 0.739-0.81 0.751 0.685 6.696-7.342-0.736-0.672 0.732-0.802 2.496 2.276c0.81 0.739 0.893 1.462 0.248 2.169zM30.417 128.164l1.615 0.299 2.807-3.078-1.031-0.94zM29.659 134.082l3.862-4.234-3.977-0.727-2.418 2.651z" fill="#7c4e29" data-fill-palette-color="accent"></path><path d="M42.221 137.54l2.511 1.39 1.5-5.674zM44.686 143.746l0.924 0.512-0.531 0.959-2.755-1.525 0.531-0.959 0.759 0.42 0.852-3.208-2.964-1.641-2.266 2.425 0.776 0.43-0.531 0.959-2.755-1.525 0.531-0.959 0.889 0.492 7.798-8.283 1.665 0.922z" fill="#7c4e29" data-fill-palette-color="accent"></path><path d="M65.372 139.112l-0.293 1.056-0.979-0.271-2.941 10.624-1.527-0.423-1.891-10.317-2.226 8.04 1.019 0.282-0.293 1.056-3.275-0.906 0.292-1.057 0.99 0.274 2.648-9.567-0.99-0.274 0.293-1.056 2.401 0.664 1.946 10.529 2.276-8.222-1.008-0.28 0.292-1.056z" fill="#7c4e29" data-fill-palette-color="accent"></path><path d="M72.697 143.473l3.914 2.643c0.214 0.161 0.411 0.301 0.594 0.42 0.182 0.12 0.34 0.245 0.475 0.376v0c0.27 0.269 0.398 0.593 0.384 0.972v0l-0.098 2.739c-0.017 0.485-0.2 0.851-0.548 1.097v0c-0.301 0.229-0.69 0.334-1.168 0.317v0l-5.149-0.184 0.107-2.988 1.165 0.042-0.068 1.892 4.363 0.156 0.112-3.147-4.14-2.751c-0.371-0.233-0.671-0.469-0.902-0.71-0.237-0.241-0.349-0.561-0.335-0.96v0l0.073-2.032c0.023-0.637 0.191-1.067 0.505-1.288v0c0.266-0.197 0.715-0.284 1.345-0.261v0l4.881 0.174-0.107 2.988-1.165-0.041 0.067-1.893-4.213-0.15z" fill="#7c4e29" data-fill-palette-color="accent"></path><path d="M103.606 134.845l-0.95 0.36 3.516 9.283 0.951-0.36 0.388 1.025-3.113 1.179-0.388-1.025 0.922-0.35-1.638-4.324-4.203 1.592 1.638 4.325 0.923-0.35 0.388 1.025-3.113 1.18-0.388-1.026 0.96-0.363-3.517-9.283-0.96 0.364-0.388-1.026 3.113-1.179 0.388 1.025-0.922 0.35 1.493 3.942 4.203-1.592-1.493-3.942-0.923 0.349-0.388-1.025 3.113-1.179z" fill="#7c4e29" data-fill-palette-color="accent"></path><path d="M110.077 129.691l2.611-1.762c0.545-0.368 1.042-0.487 1.49-0.357 0.447 0.139 0.869 0.504 1.267 1.093v0l4.344 6.435c0.435 0.644 0.644 1.18 0.628 1.608-0.021 0.431-0.313 0.837-0.875 1.216v0l-2.577 1.74c-0.854 0.576-1.575 0.594-2.164 0.054v0c-0.185-0.156-0.36-0.355-0.523-0.597v0l-4.483-6.642c-0.405-0.6-0.6-1.102-0.584-1.506v0c0.005-0.468 0.293-0.895 0.866-1.282zM110.278 130.879l5.553 8.227 3.511-2.369-5.553-8.228z" fill="#7c4e29" data-fill-palette-color="accent"></path><path d="M128.462 130.192l-0.791-0.758 0.71-0.741-7.169-6.866-1.413 1.475 1.382 1.324-0.8 0.835-2.174-2.082 5.35-5.586 2.173 2.082-0.813 0.849-1.382-1.323-1.406 1.468 7.169 6.866 0.723-0.755 0.792 0.758z" fill="#7c4e29" data-fill-palette-color="accent"></path><path d="M132.973 111.355l0.578-0.932 2.879 1.787-0.578 0.931-0.974-0.604-1.203 1.94 3.93 2.437 2.185-3.523-1.609-0.998 0.578-0.932 2.541 1.577-3.998 6.445-0.932-0.578 0.541-0.873-8.435-5.233-0.541 0.873-0.932-0.578 3.999-6.445 2.54 1.576-0.578 0.932-1.609-0.999-2.185 3.523 3.574 2.218 1.203-1.94z" fill="#7c4e29" data-fill-palette-color="accent"></path><path d="M144.873 105.008l-1.035-0.364 0.341-0.968-9.363-3.295-0.341 0.968-1.034-0.364 1.128-3.206 1.034 0.364-0.351 0.997 9.364 3.295 1.128-3.206-1.786-0.628 0.364-1.035 2.82 0.993z" fill="#7c4e29" data-fill-palette-color="accent"></path><path d="M1.84 78.064c0-2.557 2.073-4.63 4.63-4.63 2.557 0 4.63 2.073 4.629 4.63 0 2.557-2.073 4.63-4.629 4.629-2.557 0-4.63-2.073-4.63-4.629z" fill="#7c4e29" data-fill-palette-color="accent"></path><path d="M141.248 78.064c0-2.557 2.073-4.63 4.629-4.63 2.557 0 4.63 2.073 4.63 4.63 0 2.557-2.073 4.63-4.63 4.629-2.557 0-4.63-2.073-4.629-4.629z" fill="#7c4e29" data-fill-palette-color="accent"></path></g></svg></g></svg></g></svg></g><defs></defs></svg><rect width="395.52" height="105.06397928369576" fill="none" stroke="none" visibility="hidden"></rect></g></svg></g></svg>